<svg width="320" height="280" viewBox="0 0 320 280" fill="none" xmlns="http://www.w3.org/2000/svg">
  <defs>
    <linearGradient id="bg" x1="0" y1="0" x2="320" y2="280" gradientUnits="userSpaceOnUse">
      <stop stop-color="#EEF5FF"/>
      <stop offset="1" stop-color="#FFF4ED"/>
    </linearGradient>
    <linearGradient id="fur" x1="90" y1="78" x2="230" y2="228" gradientUnits="userSpaceOnUse">
      <stop stop-color="#F7C28A"/>
      <stop offset="1" stop-color="#E79858"/>
    </linearGradient>
    <linearGradient id="blazer" x1="109" y1="188" x2="212" y2="248" gradientUnits="userSpaceOnUse">
      <stop stop-color="#2C5FD2"/>
      <stop offset="1" stop-color="#1F3F8A"/>
    </linearGradient>
  </defs>

  <rect width="320" height="280" rx="28" fill="url(#bg)"/>
  <ellipse cx="160" cy="238" rx="92" ry="18" fill="#DCE5F5"/>

  <path d="M84 126L56 68L104 98L84 126Z" fill="#E89C61"/>
  <path d="M236 126L264 68L216 98L236 126Z" fill="#E89C61"/>
  <path d="M92 121L73 84L104 102L92 121Z" fill="#FCE8D3"/>
  <path d="M228 121L247 84L216 102L228 121Z" fill="#FCE8D3"/>

  <rect x="84" y="86" width="152" height="144" rx="70" fill="url(#fur)"/>
  <ellipse cx="160" cy="174" rx="48" ry="38" fill="#FFF7ED"/>

  <circle cx="122" cy="143" r="18" fill="white"/>
  <circle cx="198" cy="143" r="18" fill="white"/>
  <circle cx="124" cy="146" r="8" fill="#0F172A"/>
  <circle cx="196" cy="146" r="8" fill="#0F172A"/>
  <circle cx="127" cy="143" r="2.4" fill="white"/>
  <circle cx="199" cy="143" r="2.4" fill="white"/>

  <path d="M160 164L149 178H171L160 164Z" fill="#1E293B"/>
  <path d="M147 183C152 193 168 193 173 183" stroke="#1E293B" stroke-width="4" stroke-linecap="round"/>

  <circle cx="108" cy="176" r="8" fill="#FCA5A5" fill-opacity="0.5"/>
  <circle cx="212" cy="176" r="8" fill="#FCA5A5" fill-opacity="0.5"/>

  <path d="M108 224C114 207 128 196 146 196H174C192 196 206 207 212 224L214 230H106L108 224Z" fill="url(#blazer)"/>
  <path d="M144 198L160 216L176 198" stroke="#BFDBFE" stroke-width="3" stroke-linecap="round" stroke-linejoin="round"/>
  <circle cx="160" cy="223" r="4" fill="#93C5FD"/>

  <rect x="111" y="218" width="98" height="28" rx="14" fill="#2563EB"/>
  <path d="M124 232H145" stroke="#BFDBFE" stroke-width="3" stroke-linecap="round"/>
  <text x="172" y="236" text-anchor="middle" font-size="11" font-family="Arial, sans-serif" font-weight="700" fill="white">ZOEY CPA</text>
</svg>